<svg viewBox="0 0 229.53 91.78" xmlns="http://www.w3.org/2000/svg"><g fill="#92298d"><path d="m12.48 50.31c.15-.18.24-.27.29-.27s.15.07.31.22c.56.55 1.05.95 1.47 1.17.03 0 .12-.09.27-.26.58-.66.9-1.01.98-1.03.03 0 .11.06.25.18.49.44.96.82 1.42 1.14.02.01.03.06.02.13-.01.08-.14.26-.37.54l-.15.17c-.48.58-.75.89-.81.93-.04.02-.1.03-.18.03-.22 0-.55-.2-.99-.59-.31-.28-.52-.5-.61-.64-.04-.08-.08-.12-.12-.13-.03 0-.22.2-.56.61-.35.4-.54.61-.58.63-.13.03-.29-.01-.49-.12-.34-.18-.66-.44-.97-.77-.25-.26-.37-.43-.37-.49 0-.04.4-.53 1.21-1.47z"/><path d="m20.7 39.29c.06-.06.11-.08.14-.06.09.05.17.14.24.28.11.34.44.89.99 1.65.17.24.25.4.25.47-.06.29-.24.57-.54.83-.36.37-.64.6-.83.69-.1.05-.18.07-.23.06-.12-.01-.38-.12-.77-.32-.53-.26-1.02-.29-1.45-.1-.44.26-.86.66-1.25 1.19-.48.6-.87.99-1.16 1.17-.88.51-1.59.42-2.12-.28-.1-.11-.18-.11-.26.02-.28.43-.63.8-1.04 1.1-.3.26-.72.4-1.27.42-.28 0-.44.04-.48.09s-.06.2-.06.46c0 .5-.05 1.11-.16 1.82-.34 2.2-1.15 4.17-2.43 5.9-.79 1.07-1.64 1.82-2.55 2.27-.65.32-1.35.49-2.08.51-1.1.04-1.9-.25-2.42-.85-.8-.77-1.19-1.92-1.19-3.46 0-.45.04-.91.11-1.38.16-1.09.52-2.35 1.07-3.8.11-.29.19-.47.24-.52.09-.07.16-.07.22-.01.04.11 0 .33-.09.64-.31 1.06-.51 1.94-.62 2.64-.14 1.02-.03 1.92.33 2.7.32.66.92 1.09 1.8 1.29 1.24.18 2.35.04 3.33-.45.83-.4 1.57-1.01 2.22-1.85 1.22-1.52 1.69-3.62 1.43-6.3-.03-.67.05-1.23.25-1.69.13-.15.22-.11.24.11l.06.32c.63.23 1.28.19 1.93-.12.33-.16.58-.33.76-.53.16-.17.26-.53.31-1.07.12-.72.37-1.49.75-2.3.13-.26.22-.41.29-.44.08-.02.19-.03.32-.03l-.02.35c-.04.87.11 1.47.43 1.78.31.35.76.52 1.34.5.1 0 .21-.05.33-.14.22-.15.59-.46 1.1-.94.5-.5 1-.87 1.5-1.12.11-.08.19-.2.26-.36.28-.56.55-.95.81-1.17z"/><path d="m44.23 48.28c-.01.18-.07.36-.18.55s-.2.37-.28.55c-.46.58-.82.87-1.1.87-.26-.12-.69-.25-1.29-.37-.1.01-.19.07-.26.17s-.15.19-.22.27c-.35.57-.69 1.13-1.02 1.69-.43.63-.92 1.07-1.46 1.33-1.42.7-3.48 1.17-6.21 1.42-.65.06-1.28.09-1.88.09-1.17 0-2.22-.11-3.17-.33-.83-.18-1.3-.6-1.4-1.25-.06-.32-.09-.66-.09-1.02 0-.65.1-1.48.31-2.46.03-.09.09-.16.17-.2.11-.01.2.05.27.18v1c.01.39.16.68.44.85 1.22.48 2.82.71 4.8.71 2.79 0 5.05-.26 6.77-.78 1.04-.55 1.72-1.11 2.03-1.66.16-.25.32-.49.48-.73.22-.28.46-.43.7-.46.13 0 .35.06.68.16.32.11.56.17.7.17.31 0 .52-.17.65-.5.08-.11.2-.24.37-.37.12 0 .18.04.18.13zm-10.46-.86h.09c.42-.36.78-.53 1.09-.53s.53.14.73.42c.03.11.04.2.04.29 0 .31-.14.62-.42.94-.26.25-.53.5-.79.75-.26.13-.62.21-1.07.26-.64.04-.99.07-1.05.07s-.15.02-.27.03-.21.02-.28.02c-.09-.01-.16-.05-.21-.11.06-.2.24-.34.54-.42.75-.8 1.12-1.47 1.12-2.03.03-.13.05-.48.06-1.05 0-.45.06-.8.17-1.03.14-.18.32-.45.57-.8.08 0 .12.02.12.06-.05.18-.1.71-.14 1.57-.03.67-.13 1.19-.3 1.56zm1 .41c-.1-.04-.2-.06-.31-.06-.28 0-.56.15-.85.46-.2.26-.41.53-.63.79.57-.09.9-.14.98-.17.35-.11.62-.29.81-.55.11-.21.11-.37 0-.46zm6.69-3.21.04-.11 1.72-1.48.12.04c.53.67 1.01 1.2 1.42 1.59v.16c-.36.38-.91.83-1.64 1.35-.04.01-.09.02-.13.02-.11 0-.32-.13-.61-.39-.23-.25-.54-.64-.92-1.18z"/><path d="m49.62 50.71c-.1.71-.48 1.66-1.13 2.84-.18.32-.48.54-.92.65-.36.09-.74.19-1.12.29-.28.09-.7.21-1.26.37-.14 0-.22-.04-.24-.13 0-.11.1-.22.29-.33.58-.35 1.17-.69 1.75-1.02.64-.41 1.18-.83 1.63-1.25.13-.18.18-.42.13-.73-.09-.21-.19-.36-.3-.44-.15.03-.29.04-.42.04-.53 0-.92-.18-1.18-.54-.1-.17-.15-.35-.15-.54 0-.21.06-.46.19-.77.12-.23.23-.47.33-.73s.2-.53.29-.82c.16-.32.37-.53.63-.63.48-.09.87.1 1.16.59.32.54.48 1.18.48 1.92 0 .39-.05.8-.16 1.23zm.75-7.71v-.04c-.1.2-.28.46-.54.78-.14 0-.25 0-.33-.02-.61 0-1.12.26-1.53.77-.36.6-.6.96-.73 1.1-.32.43-.64.7-.96.8-.22.08-.41.12-.56.12-.28 0-.49-.1-.64-.29l.04-.13c.22-.41.56-.92 1.03-1.54.17.09.33.14.48.14.24 0 .45-.09.65-.27.29-.36.75-.91 1.38-1.64.54-.61 1.12-.91 1.75-.9.13 0 .27.07.39.2l-.02.17c-.07.11-.21.36-.42.75z"/><path d="m53.2 47.41.04.04c.32-.09.64-.14.96-.14.8 0 1.42.23 1.88.7.35.36.52.86.52 1.5 0 .33-.06.78-.17 1.33-.11.22-.29.76-.55 1.62-.2.67-.42 1.18-.65 1.53-.38.55-.92.83-1.64.83-.11 0-.23 0-.34-.02-.95-.22-1.49-1.19-1.64-2.91-.04-.52-.06-1.1-.06-1.74s.03-1.53.09-2.71c.06-1.24.09-2.14.09-2.71-.06-.43.03-.92.27-1.47.32-.82.49-1.29.52-1.4.01-.03.04-.06.09-.09.15 0 .22.05.22.16-.26 1.92-.38 3.8-.35 5.63.03-.01.06-.05.1-.11s.06-.1.07-.11c.03-.11.17-.37.42-.76.43-.65 1.46-1.74 3.1-3.25.1-.09.8-.68 2.1-1.75.84-.7 1.49-1.35 1.96-1.95.07-.17.23-.37.48-.61.04 0 .09.06.13.18l-.02.32c-.26.64-.62 1.29-1.07 1.95-.7.75-1.64 1.61-2.82 2.57-1.91 1.56-2.89 2.36-2.93 2.4-.42.37-.68.69-.78.95zm2.4 3.25c-.29-.47-.73-.77-1.31-.9-.78-.08-1.37.12-1.77.59-.11.26-.09.61.06 1.05.36.58.84.91 1.44.98.72 0 1.27-.38 1.64-1.15.04-.22.02-.41-.06-.57z"/><path d="m59.96 43.23c-.05.26-.1.65-.16 1.16-.06.65-.09 1.56-.11 2.71 0 1.32-.01 2.25-.04 2.77-.06 1.12-.36 2.3-.92 3.52-.11.23-.2.34-.29.34-.04 0-.09-.01-.13-.04-.1-.06-.14-.19-.11-.39.11-.39.21-1.37.28-2.94-.1-1.27-.14-2.68-.11-4.26.23-.79.64-1.77 1.23-2.93.14-.09.26-.06.35.06z"/><path d="m81.12 46.58c.15-.2.33-.2.54 0 .3.26.65.53 1.04.82.15.11.22.19.22.23 0 .06-.21.31-.62.75l-.68.71c-.24.01-.44-.03-.59-.13-.17-.11-.43-.35-.78-.7-.21-.21-.31-.33-.31-.36 0-.04.19-.27.59-.68.38-.41.58-.63.58-.64z"/><path d="m80.89 56.87c.15-.18.24-.27.29-.27s.15.07.31.22c.56.55 1.05.95 1.47 1.17.03 0 .12-.09.27-.26.58-.66.9-1.01.98-1.03.03 0 .11.06.25.18.49.44.96.82 1.42 1.14.02.01.03.06.02.13-.01.08-.14.26-.37.54l-.15.17c-.48.58-.75.89-.81.93-.04.02-.1.03-.18.03-.22 0-.55-.2-.99-.59-.31-.28-.52-.5-.61-.64-.04-.08-.08-.12-.12-.13-.03 0-.22.2-.56.61-.35.4-.54.61-.58.63-.13.03-.29-.01-.49-.12-.34-.18-.66-.44-.97-.77-.25-.26-.37-.43-.37-.49 0-.04.4-.53 1.21-1.47z"/><path d="m87.94 53.81c.16-.14.32-.14.48-.02.24.21.58.48 1 .8.2.15.3.25.3.3 0 .04-.04.12-.14.23-.24.27-.54.59-.91.97l-.24.27c-.32 0-.58-.1-.77-.29-.36-.28-.66-.59-.89-.93 0-.06.15-.23.43-.53l.16-.16c.38-.41.58-.63.58-.64z"/><path d="m64.62 52.44c0-.68.04-1.25.1-1.72 0-.21.04-.35.11-.43.21-.16.33-.08.36.26.01.4.05.74.1 1.03.06.19.16.34.31.44.87.37 2.26.52 4.16.44l1.42-.02 1.54-.17c1.03-.12 1.6-.19 1.71-.21.94-.2 1.7-.54 2.28-1.03.41-.31.59-.9.55-1.75v-1.73c0-1.5.01-2.31.04-2.43.3-1.18.73-2.03 1.3-2.56.24-.23.63-.49 1.16-.79l.37-.19c.56-.31 1.31-.66 2.24-1.07 1.29-.57 2.32-1.07 3.08-1.49.37-.21.67-.41.91-.61.13-.11.24-.13.32-.06.03.01.03.05.01.11-.36.68-.91 1.27-1.67 1.77-.48.32-1.05.62-1.72.9-1.45.61-2.93 1.3-4.45 2.07-.2.13-.37.29-.52.49-.11.16-.16.33-.16.51-.06.68-.08 1.72-.07 3.13v1.91l.09.68c.05.55.14.94.27 1.16.39.63 1.09.94 2.1.93.34 0 .63-.07.85-.18.11-.05.31-.22.6-.51.28-.28.49-.46.61-.51.2-.11.42-.13.65-.07l.35.11c.44.19.75.2.94.04.28-.36.47-.81.56-1.35.09-.92.29-1.72.61-2.4.09-.16.18-.26.28-.28.07 0 .12.02.14.09.02.46.07.89.15 1.27.27.72.86 1.03 1.78.95.14-.04.28-.11.42-.23.23-.24.42-.24.56.01.01.04.02.09.01.14-.08.19-.28.52-.62 1.01-.67.93-1.26 1.44-1.78 1.52-.44.02-.86-.15-1.26-.52-.41.52-.81.87-1.21 1.06-.28.07-.59.05-.94-.07-.47-.18-.78-.17-.92.03-.09.11-.31.45-.65 1.03-.3.51-.58.87-.85 1.08l-.24.2c-.33.28-.8.38-1.39.28-.21-.04-.42-.1-.61-.19-.39-.21-.71-.64-.96-1.29-.15-.45-.26-.96-.34-1.52l-.14.28c-.53 1.07-1.5 1.81-2.91 2.22-.48.16-.97.29-1.49.38l-.69.09c-1.65.2-2.96.29-3.94.28-1.17 0-2.04-.12-2.62-.34-.68-.23-.97-.93-.89-2.12z"/><path d="m105.89 40.22 3.23-1.44c.43-.22.86-.44 1.29-.66.51-.28.92-.56 1.23-.85.11 0 .17.04.17.12.04.11-.05.3-.27.57-.68.82-1.54 1.5-2.57 2.03-1.11.47-2.75 1.22-4.92 2.25-.54.29-.88.66-1.02 1.12-.06.32-.11.97-.14 1.94-.04.83-.12 1.47-.23 1.92-.34 1.27-1.01 2.13-2.04 2.6-.49.22-.98.43-1.46.63-.55.29-.95.67-1.19 1.14-.04.11.09.26.36.44.54.2 1.28.32 2.21.36 1.47.09 2.24.14 2.29.14h4.27l3.97-.14 2.73-.17c.11 0 .17.04.18.11l-.06.14c-1.21 1-2.71 1.6-4.5 1.79l-3.46.36-3.98.25c-.6.04-1.11.06-1.55.06-1.44 0-2.61-.21-3.5-.63-.46-.22-.69-.52-.67-.9.01-.32.13-.67.35-1.06.2-.33.41-.66.63-.98.35-.55.88-1.07 1.59-1.55.33-.22.98-.59 1.95-1.12.8-.42 1.21-.99 1.24-1.72 0-.6.01-1.19.03-1.79.03-.68.13-1.23.3-1.66.44-1.07.99-1.82 1.64-2.27.48-.33 1.11-.68 1.9-1.02z"/><path d="m133.26 49.77c-.19.9-.62 1.74-1.28 2.51s-1.42 1.29-2.28 1.55c-2.33.71-4.63 1.07-6.9 1.07-1.14 0-2.22-.1-3.25-.29-.88-.16-1.39-.57-1.54-1.24-.07-.33-.11-.7-.11-1.1 0-.54.11-1.35.33-2.42.01-.01.03-.05.05-.1s.05-.07.07-.07c.14 0 .22.04.25.13 0 .36 0 .72.02 1.07.03.44.21.73.54.85 1.17.47 3.03.69 5.59.65 2.57-.03 4.68-.33 6.34-.92.79-.27 1.41-.84 1.86-1.72.03-.06.09-.1.18-.12.09 0 .13.05.13.14zm-8.17 8.17h-.06c-.18.23-.34.45-.5.67-.22.26-.44.44-.66.54-.28-.03-.58-.16-.9-.39-.26-.21-.52-.43-.78-.65-.08-.11-.08-.21 0-.29.11-.17.5-.66 1.17-1.48.12-.03.25.02.4.15s.24.2.28.22c.16.11.4.26.74.44.14.19.3.29.5.29.25-.4.58-.82.99-1.27.36.26.93.63 1.69 1.09.04.12.03.21-.04.27-.35.55-.73 1.08-1.13 1.59-.51-.19-1.08-.58-1.71-1.17zm-.11 1.59h.21c.19.09.44.25.76.5.31.25.55.42.73.5.06.12.09.2.07.22-.26.33-.67.81-1.23 1.42-.14.09-.24.09-.31.02-.55-.29-1.04-.65-1.44-1.07.09-.19.28-.47.59-.82.3-.36.51-.61.62-.78z"/><path d="m140.15 38.19c-.48 1.34-1.28 2.41-2.4 3.19-.57.4-1.15.6-1.75.6-.29 0-.57-.05-.83-.16-.04-.01-.13-.07-.25-.16s-.22-.14-.29-.14c-.04 0-.09.01-.15.04-.38.2-.8.6-1.27 1.22-.06.05-.16.07-.31.07-.04-.05-.04-.19 0-.42.75-1.44 1.58-2.48 2.5-3.1.1-.09.21-.14.33-.14.11 0 .26.06.45.16.19.11.32.17.39.19.28.11.56.16.85.16.58 0 1.08-.18 1.49-.53.21-.27.56-.64 1.05-1.11.13-.07.19-.03.19.13zm-3.38 5.04c-.04.26-.09.65-.15 1.16-.06.65-.1 1.56-.12 2.71 0 1.32-.01 2.25-.04 2.77-.06 1.12-.36 2.3-.92 3.52-.1.23-.19.34-.28.34-.05 0-.1-.01-.14-.04-.1-.06-.14-.19-.11-.39.11-.39.21-1.37.29-2.94-.11-1.27-.15-2.68-.12-4.26.24-.79.64-1.77 1.23-2.93.15-.09.27-.06.35.06z"/><path d="m153.02 50.31c.15-.18.24-.27.29-.27s.15.07.31.22c.56.55 1.05.95 1.47 1.17.03 0 .12-.09.27-.26.58-.66.9-1.01.98-1.03.03 0 .11.06.25.18.49.44.96.82 1.42 1.14.02.01.03.06.02.13-.01.08-.14.26-.37.54l-.15.17c-.48.58-.75.89-.81.93-.04.02-.1.03-.18.03-.22 0-.55-.2-.99-.59-.31-.28-.52-.5-.61-.64-.04-.08-.08-.12-.12-.13-.03 0-.22.2-.56.61-.35.4-.54.61-.58.63-.13.03-.29-.01-.49-.12-.34-.18-.66-.44-.97-.77-.25-.26-.37-.43-.37-.49 0-.04.4-.53 1.21-1.47z"/><path d="m161.24 39.29c.06-.06.11-.08.14-.06.09.05.17.14.24.28.11.34.44.89.99 1.65.17.24.25.4.25.47-.06.29-.24.57-.54.83-.36.37-.64.6-.83.69-.1.05-.18.07-.23.06-.12-.01-.38-.12-.77-.32-.53-.26-1.02-.29-1.45-.1-.44.26-.86.66-1.25 1.19-.48.6-.87.99-1.16 1.17-.88.51-1.59.42-2.12-.28-.1-.11-.18-.11-.26.02-.28.43-.63.8-1.04 1.1-.3.26-.72.4-1.27.42-.28 0-.44.04-.48.09s-.06.2-.06.46c0 .5-.05 1.11-.16 1.82-.34 2.2-1.15 4.17-2.43 5.9-.79 1.07-1.64 1.82-2.55 2.27-.65.32-1.35.49-2.08.51-1.1.04-1.9-.25-2.42-.85-.8-.77-1.19-1.92-1.19-3.46 0-.45.04-.91.11-1.38.16-1.09.52-2.35 1.07-3.8.11-.29.19-.47.24-.52.09-.07.16-.07.22-.01.04.11 0 .33-.09.64-.31 1.06-.51 1.94-.62 2.64-.14 1.02-.03 1.92.33 2.7.32.66.92 1.09 1.8 1.29 1.24.18 2.35.04 3.33-.45.83-.4 1.57-1.01 2.22-1.85 1.22-1.52 1.69-3.62 1.43-6.3-.03-.67.05-1.23.25-1.69.13-.15.22-.11.24.11l.06.32c.63.23 1.28.19 1.93-.12.33-.16.58-.33.76-.53.16-.17.26-.53.31-1.07.12-.72.37-1.49.75-2.3.13-.26.22-.41.29-.44.08-.02.19-.03.32-.03l-.02.35c-.04.87.11 1.47.43 1.78.31.35.76.52 1.34.5.1 0 .21-.05.33-.14.22-.15.59-.46 1.1-.94.5-.5 1-.87 1.5-1.12.11-.08.19-.2.26-.36.28-.56.55-.95.81-1.17z"/><path d="m171.9 54.69c-.81-.33-1.57-.82-2.28-1.47-.77-.71-1.35-1.66-1.75-2.84-.4-1.07-.6-2.16-.6-3.28 0-1.05.18-2.06.53-3.03.37-1.04.93-1.96 1.69-2.75.6-.64 1.35-1.16 2.26-1.56 1.02-.43 2.09-.64 3.2-.64.9 0 1.78.14 2.67.43.64.2 1.22.46 1.75.77.26.14.41.14.45 0l.17-.64c.03-.09.12-.13.28-.13.17 0 .26.12.26.36 0 .1.02.34.06.73l.17 1.32c.14 1.11.24 1.83.3 2.18.03.13 0 .2-.09.21l-.32.11c-.1.01-.18-.05-.23-.19-.2-.5-.4-.92-.6-1.26-.33-.54-.69-1.02-1.09-1.45-.51-.53-1.04-.92-1.6-1.19-.67-.33-1.41-.49-2.22-.49-.92 0-1.76.2-2.5.6-.67.37-1.23.89-1.68 1.56-.87 1.22-1.29 2.73-1.28 4.52 0 .36.03.74.09 1.15.09.48.2.96.34 1.43.16.55.37 1.07.64 1.54.28.55.63 1.05 1.04 1.49.68.75 1.38 1.27 2.09 1.54.54.2 1.24.3 2.09.3 1.15 0 2.24-.28 3.26-.85.87-.5 1.58-1.14 2.13-1.92.06-.1.11-.12.17-.06l.3.21c.07.06.09.12.04.19-.74 1.08-1.61 1.93-2.6 2.56-1.18.74-2.48 1.11-3.9 1.11-1.22 0-2.3-.18-3.24-.53z"/><path d="m185.3 52.58.02.92c.03.46.21.68.55.68h.98c.17 0 .26.06.26.19v.38c0 .14-.04.21-.13.21l-.79-.04c-.57-.01-1.13-.02-1.68-.02s-1.13 0-1.69.02l-.79.04c-.1 0-.15-.07-.15-.21v-.38c0-.13.09-.19.28-.19h1.04c.31 0 .48-.18.49-.53l.02-1v-6.08c0-.87 0-1.68-.02-2.43-.01-.85-.03-1.41-.04-1.69-.04-.65-.41-1.09-1.09-1.3l-.45-.15c-.09-.03-.13-.06-.13-.11v-.19c0-.06.06-.11.19-.15l1.28-.55c.53-.26.95-.49 1.28-.7.17-.11.33-.17.47-.17.13 0 .19.13.17.38l-.09 5.52v7.55z"/><path d="m189.91 54.81c-.65-.27-1.19-.65-1.62-1.15-.8-.97-1.19-2.15-1.19-3.56s.63-2.55 1.88-3.52c.51-.4 1.05-.68 1.62-.85.44-.13.87-.19 1.3-.19 1.19 0 2.22.42 3.07 1.26.98 1.02 1.47 2.21 1.47 3.56 0 1.22-.46 2.32-1.39 3.31-.98 1-2.13 1.49-3.43 1.49-.58 0-1.15-.11-1.71-.34zm3.95-1.62c.5-.82.75-1.84.75-3.05 0-1.12-.34-2.08-1.02-2.88-.6-.73-1.22-1.09-1.86-1.09-.68 0-1.24.24-1.68.7-.77.78-1.15 1.93-1.15 3.43 0 1.24.28 2.25.83 3.05.53.77 1.24 1.15 2.15 1.15.81 0 1.47-.44 1.98-1.32z"/><path d="m198.53 54.9c-.17-.04-.34-.11-.49-.19-.13-.06-.23-.11-.3-.17-.04-.03-.08-.08-.11-.15-.01-.03-.02-.06-.02-.09l-.38-2.15c-.01-.09.03-.14.13-.17l.28-.06c.1-.03.17.01.21.13l.53 1.07c.28.5.51.82.68.98.3.26.7.38 1.22.38.44 0 .83-.12 1.17-.36.37-.27.55-.65.55-1.13 0-.95-.7-1.62-2.11-2.01-.77-.23-1.36-.52-1.77-.87-.54-.48-.81-1.12-.81-1.9s.31-1.39.92-1.9c.6-.51 1.31-.77 2.13-.77.47 0 .89.05 1.26.15.14.04.28.09.43.15l.34.15c.16.07.26.14.3.19.04.07.07.14.09.21l.32 1.51c0 .09-.05.16-.15.21l-.26.09c-.07.01-.14-.02-.19-.11l-.75-1.02c-.16-.24-.34-.43-.55-.58-.26-.18-.58-.28-.98-.28-.44 0-.83.13-1.15.38-.36.26-.53.61-.53 1.07 0 .57.22.99.66 1.26.17.13.4.23.68.32l.77.23c.87.24 1.5.55 1.9.94.48.46.73 1.07.73 1.86 0 .88-.32 1.58-.96 2.09-.63.53-1.42.79-2.37.79-.47 0-.94-.09-1.41-.26z"/><path d="m205.44 48.54c0-.74-.41-1.17-1.24-1.3-.13-.01-.19-.07-.19-.17v-.19c0-.06.05-.11.15-.15.4-.14.78-.29 1.15-.45.43-.2.83-.41 1.22-.62.17-.09.3-.13.4-.13.11 0 .16.09.13.26-.01.16-.03.57-.04 1.24v5.87c0 .37 0 .61.02.73.04.37.16.55.34.55h1c.14 0 .21.06.21.19v.38c0 .14-.06.21-.19.21l-.77-.04c-.53-.01-.97-.02-1.32-.02-.51 0-1.04 0-1.58.02l-.79.04c-.11 0-.17-.06-.17-.17v-.45c0-.11.07-.17.21-.17h1.07c.23 0 .35-.14.36-.43.01-.3.02-.63.02-1v-4.2zm-.58-5.82c-.27-.24-.41-.52-.41-.83 0-.77.44-1.15 1.32-1.15.75 0 1.13.36 1.13 1.09 0 .8-.42 1.19-1.26 1.19-.27 0-.53-.1-.79-.3z"/><path d="m217.94 53.73c0 .3.16.45.47.45h.7c.16 0 .23.06.23.19v.36c0 .16-.06.23-.17.23l-.64-.04c-.09 0-.18 0-.28-.02h-2.22c-.09.01-.18.02-.28.02l-.62.04c-.11 0-.17-.08-.17-.23v-.36c0-.13.09-.19.28-.19h.64c.27 0 .41-.16.43-.49.01-.34.02-.65.02-.92.01-.36.02-.66.02-.92v-3.5c-.01-.21-.04-.39-.09-.53-.07-.34-.26-.62-.55-.83-.23-.17-.48-.28-.77-.34l-.4-.04h-.41c-.24 0-.5.05-.77.15-.38.16-.72.39-1 .7-.2.21-.34.47-.43.77-.06.21-.09.45-.09.7v4.52c0 .48.18.73.53.73h.53c.16 0 .23.07.23.21v.38c0 .13-.06.19-.17.19l-.55-.04c-.2-.01-.39-.02-.58-.02h-1.83c-.09.01-.17.02-.26.02l-.62.04c-.1 0-.15-.06-.15-.19v-.41c0-.13.07-.19.21-.19h.64c.28 0 .43-.14.43-.43v-5.12c0-.57-.3-1-.9-1.28l-.17-.09c-.11-.04-.17-.11-.17-.21v-.11c0-.09.06-.16.19-.21l1.88-1.05.26-.11c.06-.03.11-.04.15-.04.1 0 .16.09.17.26l.15 1.32h.04c.34-.41.79-.78 1.34-1.09.58-.33 1.13-.49 1.64-.49.77 0 1.39.16 1.86.47.81.54 1.22 1.24 1.22 2.09v5.63z"/><path d="m221.99 60.7c-.64-.11-1.2-.31-1.69-.58-.74-.47-1.11-1.06-1.11-1.77 0-.57.26-1.1.77-1.6.41-.41.92-.75 1.54-1.02v-.09c-.98-.21-1.47-.72-1.47-1.51 0-.47.23-.91.7-1.32.36-.33.78-.58 1.26-.75v-.04c-.54-.24-.98-.6-1.32-1.07-.47-.63-.7-1.38-.7-2.26 0-.8.31-1.5.94-2.11.71-.7 1.64-1.05 2.79-1.05.71 0 1.35.17 1.92.51.18.13.37.28.55.45l.28.3c.37-.24.7-.44.98-.6.4-.17.75-.26 1.07-.26.74 0 1.08.31 1.02.92 0 .54-.28.81-.85.81-.16 0-.31-.04-.45-.11-.06-.03-.11-.06-.17-.11l-.26-.17s-.06-.05-.11-.06c-.09-.06-.16-.09-.23-.09h-.13c-.06 0-.11.01-.17.04-.16.01-.29.05-.41.11.1.26.19.49.26.7.06.3.09.61.09.94 0 .94-.27 1.73-.81 2.37-.65.73-1.5 1.09-2.54 1.09-.47 0-.84-.04-1.11-.11-.3.11-.55.26-.75.45-.28.24-.43.5-.43.77 0 .41.24.66.73.75.21.03.48.04.81.04l1.02-.04c1.72-.09 2.97.18 3.75.79.41.3.7.67.88 1.11.09.16.14.33.17.51.01.09.02.17.02.26.01.06.02.13.02.21 0 1.07-.49 1.96-1.47 2.69-.37.26-.83.48-1.39.66-.74.24-1.52.36-2.35.36-.63 0-1.18-.04-1.66-.13zm4.33-1.07c.84-.44 1.24-1.02 1.19-1.75 0-1.58-1.05-2.29-3.16-2.13l-2.11.17c-.4.1-.78.31-1.13.64-.41.43-.62.91-.62 1.45 0 .6.28 1.1.85 1.51.58.4 1.61.6 3.07.6.63 0 1.26-.16 1.9-.49zm-1.26-8.94c.28-.58.43-1.29.43-2.11 0-.87-.2-1.52-.6-1.96-.31-.33-.66-.49-1.05-.49-.63 0-1.14.21-1.56.62-.31.34-.53.75-.64 1.24-.09.37-.13.82-.13 1.34 0 .77.23 1.4.68 1.9.38.37.82.55 1.32.55.67 0 1.18-.36 1.54-1.09z"/><path d="m65.83 84.24c.52-.14.76-.08.71.19-.14.38-.41.86-.8 1.42-.1.14-.2.23-.3.28-.74.19-1.59.23-2.56.13-1.07-.17-2.19-.5-3.35-1l-.43-.19c-.11-.27-.05-.45.18-.54h2.07c2.03.02 3.52-.06 4.47-.28z"/><path d="m82.49 66.38c.03.1 0 .2-.07.31s-.14.22-.2.31c-.43.55-.88 1.01-1.33 1.35-.57.42-1.35.86-2.34 1.33-1.29.6-2.1.99-2.42 1.17-.73.43-1.08.9-1.04 1.43-.04.26-.05.53-.05.82 0 .26.02.65.05 1.15s.05.88.05 1.12 0 .46-.02.66c-.12.51-.31 1.06-.58 1.63-.04.11-.11.26-.21.46-.07.34 0 .6.21.79.08.04.42.15 1.04.33.4.11.68.31.82.59.25.48.37 1.1.37 1.86 0 .64-.09 1.33-.26 2.08-.31 1.25-.82 2.38-1.54 3.38-.81 1.17-1.78 1.97-2.9 2.41-.35.13-.73.19-1.14.19-.77 0-1.42-.22-1.94-.67-1.07-.95-1.61-2.4-1.61-4.35 0-1.59.38-3.77 1.15-6.55.1-.08.18-.12.24-.12.04.03.06.17.06.42-.43 2.13-.64 3.58-.64 4.35 0 .53.05 1.02.14 1.48.26 1.36.84 2.2 1.72 2.54.37.14.75.21 1.14.21.96 0 1.95-.39 2.98-1.17.81-.62 1.44-1.5 1.9-2.64 0-.04 0-.17.02-.37.01-.15.01-.27 0-.37-.03-.11-.09-.22-.18-.31-.13-.09-.52-.21-1.17-.36-.5-.13-.83-.37-1-.7-.21-.39-.31-.88-.31-1.46 0-.43.09-.91.26-1.46.16-.47.33-.95.49-1.43-.02-.32-.02-.8 0-1.44v-1.75c.04-.7.19-1.25.43-1.67.26-.95.93-1.75 2.02-2.4.96-.47 1.91-.95 2.86-1.43.48-.26.96-.52 1.44-.8.55-.32 1.01-.65 1.38-.99.11 0 .17.02.2.07zm-.37-1.83c-.38.68-1.02 1.29-1.92 1.81-.79.41-1.57.82-2.33 1.24-.63.33-1.06.58-1.31.73-.48.29-.9.58-1.25.87.01 0-.04-.02-.15-.06.11-.41.42-.86.92-1.35.6-.5 1.27-.91 2.03-1.23.36-.23 1-.58 1.92-1.05.85-.43 1.49-.79 1.93-1.1.11-.03.17.02.17.14z"/><path d="m100.03 84.85-.09.18c-1.19.84-2.24 1.33-3.15 1.46-1.44.22-2.78.35-4.02.39l-3.88.15c-2.39.09-4.22-.09-5.48-.52-.73-.26-1.09-.66-1.08-1.18.14-.54.62-1.33 1.45-2.36.38-.48.89-.91 1.55-1.29.57-.31 1.14-.61 1.73-.92.36-.2.68-.53.96-1 .22-.42.43-.84.63-1.27.05-.07.12-.11.2-.11.07 0 .11.04.13.11-.13.9-.54 1.83-1.23 2.77-.31.33-.93.67-1.88 1.01-.85.32-1.44.73-1.77 1.22 0 .01-.01.07-.04.16-.01.07 0 .12.02.15.5.45 1.44.73 2.82.85s2.7.18 3.95.18h4.52c1.92 0 3.4-.01 4.44-.04.11 0 .19.02.21.06zm-10.74-10.61c-.21.36-.53.92-.98 1.66-.43-.18-.79-.13-1.08.15-.2.21-.48.57-.84 1.09s-.65.89-.87 1.09c-.36.33-.77.51-1.22.52-.16 0-.34-.05-.52-.16.18-.36.46-.91.82-1.63.14 0 .33 0 .6-.02.5-.06.96-.37 1.38-.94.29-.5.59-.98.9-1.46.42-.44.94-.62 1.55-.53.09.03.17.1.27.22z"/><path d="m103.29 84.33h.06c.26-.6.53-1.19.79-1.79.33-.68.7-1.23 1.09-1.63.29-.22.62-.33.98-.33.29 0 .67.09 1.14.26.58.22.96.34 1.13.37.25.04.61.11 1.1.2.07.04.11.09.11.15 0 .04-.01.09-.04.13-.43.38-1.04 1.08-1.85 2.11s-1.46 1.75-1.96 2.16c-.78.65-1.61 1.02-2.48 1.09-.7.06-1.24-.24-1.64-.9-.42-.9-.63-2.05-.63-3.43 0-.31.02-.95.06-1.94.03-.81.04-1.46.02-1.96.03-.67.05-1.33.06-1.98.04-.79.2-1.42.46-1.89.04-.23.17-.54.39-.94.1 0 .16.03.18.1-.28 2.27-.37 4.65-.27 7.14.04.89.1 1.49.17 1.79.19.67.56 1.11 1.12 1.31zm1.33 7.44c-.7-.23-1.34-.7-1.9-1.42.87-1 1.35-1.55 1.44-1.63.58.49 1.2.96 1.86 1.42zm3.32-9.28v-.06c-.87-.35-1.6-.57-2.19-.66-.31.05-.57.24-.79.58-.16.29-.32.59-.48.9-.23.42-.37.81-.44 1.17 1.36-.01 2.66-.65 3.89-1.92z"/><path d="m124.52 72.54.09.18c-.14.49-.36 1.22-.66 2.2-.06.11-.16.17-.3.18-.24.01-.37.03-.4.04-1.32.67-2.15 1.63-2.5 2.88-.1.35 0 .65.29.9.11.07.44.19.98.35.41.11.7.31.85.59.21.36.31.84.31 1.42 0 .19-.01.44-.04.75-.03.38-.04.62-.04.73-.25 1.38-.71 2.62-1.38 3.73-.76 1.25-1.71 2.18-2.85 2.79-.51.26-1.07.39-1.7.39-.75 0-1.36-.19-1.83-.56-1.1-.87-1.65-2.29-1.66-4.25-.01-1.59.45-3.86 1.4-6.84l.19-.06c.08.06.12.22.12.48-.51 2.07-.77 3.56-.77 4.46 0 1.88.46 3.11 1.38 3.69.45.29.96.44 1.53.44.98 0 2.03-.4 3.15-1.21 1.05-.96 1.63-1.91 1.75-2.84.06-.45-.05-.75-.33-.92-.38-.1-.75-.21-1.13-.33-.43-.16-.7-.41-.83-.76s-.19-.74-.19-1.16.08-.94.24-1.61c.58-2.45 1.71-4.27 3.39-5.46.4-.19.64-.29.69-.29.09 0 .17.03.27.09z"/><path d="m128.67 80.49c.07.29.11.59.11.9 0 .6-.15 1.27-.46 2.01-.03.06-.33.69-.92 1.9-.07.16-.24.37-.5.62-.68.21-1.73.49-3.15.82-.1.06-.17.01-.21-.15.03-.04.28-.23.76-.56.31-.22.84-.53 1.6-.94.68-.35 1.2-.67 1.55-.96.23-.26.29-.66.16-1.18-.16-.63-.67-1.14-1.51-1.55-.06-.08-.06-.17 0-.27.04-.09.09-.17.14-.27.16-.55.37-1.21.63-1.98.39.03.76.21 1.11.54.31.31.54.66.7 1.08z"/><path d="m145.92 68.08.65-.39s.12.04.25.16c-.06.07-.28.35-.64.83-.25.35-.5.61-.77.78l-3.63 1.66c-.71.32-1.11.51-1.19.56-.43.28-.69.62-.79 1.03-.06 1.2-.11 2.41-.17 3.62-.07 1.47-.26 2.65-.58 3.54-.43.82-.66 1.23-.67 1.25-.32.43-.69.68-1.11.73-.72.2-1.32.71-1.81 1.55-.38.73-.76 1.45-1.14 2.19-.13.19-.26.37-.4.57-.16.23-.34.38-.56.44-.76.07-1.89.19-3.38.35-.06-.03-.15-.09-.25-.18.06-.14.19-.26.39-.36.26-.13.42-.22.46-.25.8-.39 1.6-.78 2.4-1.16.89-.5 1.54-1.13 1.94-1.88.32-.58.64-1.17.97-1.77.38-.67.84-1.12 1.4-1.35.67-.14 1.12-.42 1.35-.84.13-.33.19-.79.19-1.38v-3.39c0-1.1.42-2.17 1.27-3.21.39-.48 1.23-1.01 2.53-1.59l3.28-1.49z"/><path d="m155.57 77.83-.13-3.69c-.05-1.08-.05-2.04 0-2.89.21-1.02.58-1.92 1.11-2.71.11 0 .17.06.17.18-.16 1.19-.24 2.34-.24 3.45 0 .76.04 1.46.11 2.1.16.7.44 1.16.83 1.4.19.07.39.11.61.11.41 0 .76-.11 1.04-.32 0-.06-.02-.15-.07-.25s-.07-.17-.07-.21c-.04-.23-.06-.46-.06-.68 0-.89.3-1.66.9-2.31.36-.39.76-.57 1.2-.54.42.03.75.25.98.65.09.25.13.5.13.75 0 .54-.32 1.38-.96 2.53 1.22 0 2.02-.38 2.4-1.13l.39-.79c.07-.04.16-.06.27-.04.18.33.43.52.74.54.65.06 1.17-.17 1.56-.69.19-1.39.47-2.41.85-3.08.06-.06.11-.09.17-.09.09.1.11.26.09.48-.04.25-.04.42 0 .5.15.48.24.75.27.83.14.29.35.47.63.52.14-.32.36-.78.68-1.38.07-.06.15-.09.24-.09.11 0 .31.07.62.21.31.19.46.48.46.87-.22 1.43-.76 2.41-1.62 2.93-.43.27-.9.27-1.4 0-.3-.16-.55-.44-.75-.83h-.06c-.7.7-1.34 1.05-1.92 1.05-.19 0-.37-.02-.53-.07s-.27-.15-.33-.3c-1.07 1.27-2.05 1.9-2.92 1.9-.22 0-.44-.03-.66-.09-.57.64-.97 1.06-1.22 1.25-.51.39-1.03.55-1.56.48-.17-.03-.49-.19-.96-.48-.01.54-.07 1.36-.17 2.46-.37 2.3-1.11 4.34-2.23 6.1-1.47 2.31-3.28 3.42-5.44 3.32-.61-.03-1.18-.25-1.7-.67s-.89-.92-1.1-1.5c-.26-.7-.39-1.48-.39-2.34 0-1.19.31-2.72.92-4.56.06-.19.12-.39.19-.58.07-.2.19-.34.35-.44.07-.01.14.03.19.13-.16.55-.36 1.38-.61 2.47-.07.53-.11 1.01-.11 1.44 0 1.12.26 1.96.78 2.52s1.27.84 2.26.84c.48 0 .94-.07 1.4-.21 1.16-.26 2.18-.93 3.07-2.02.86-1.03 1.38-2.16 1.56-3.38.09-.64.1-1.86.04-3.65zm-.06-11.08.04-.13c.38-.46.84-.99 1.38-1.59l.13.06c.26.23.79.65 1.58 1.24l1.11-1.17h.13c.6.54 1.1.95 1.49 1.23.06.06.06.14 0 .26l-1.18 1.33c-.09.07-.17.11-.27.11-.11 0-.24-.05-.38-.14s-.27-.18-.4-.28c-.21-.16-.48-.42-.81-.8h-.04l-1 1.07c-.06.03-.12.04-.18.04-.09 0-.31-.1-.67-.31-.22-.18-.53-.49-.92-.92zm5.65 6.21c-.1-.13-.27-.21-.5-.23-.48.07-.83.32-1.05.76-.09.14-.14.27-.14.42 0 .22.1.5.29.85l.15.17c.06.09.13.14.2.14.51-.23.9-.61 1.15-1.12.14-.43.1-.76-.11-.98zm-.42-3.25 1.33-1.6h.13c.26.26.8.68 1.62 1.25.24-.28.6-.69 1.09-1.25l.14.04c.49.46 1 .85 1.53 1.18.04.04.03.12-.04.25-.31.46-.7.93-1.18 1.42-.07.04-.14.06-.21.06-.03 0-.25-.1-.66-.31-.21-.17-.53-.46-.96-.87-.21.26-.58.64-1.11 1.14-.19 0-.4-.08-.61-.23-.22-.15-.43-.3-.63-.45-.1-.1-.2-.2-.3-.3s-.14-.21-.11-.33zm6.38-2.9 1.38-1.54.12.02c.58.58 1.06 1.01 1.46 1.27.03.03.03.11 0 .25-.51.61-.96 1.07-1.33 1.38-.06.01-.11.02-.16.02-.14 0-.33-.1-.58-.31-.24-.21-.56-.53-.95-.96z"/><path d="m30.09 6.07v3.56c0 .65-.11 1.39-.33 2.21-.23.7-.46 1.4-.68 2.1-.07.56-.07.92 0 1.07.14.11.48.26 1.04.44.45.13.72.36.82.69.29.63.36 1.54.2 2.73-.38 2.87-1.61 4.91-3.69 6.1-.48.28-1.03.42-1.64.42s-1.18-.16-1.61-.48c-.8-.6-1.36-1.59-1.66-2.98-.04-.45-.06-.91-.06-1.4 0-1.82.34-3.81 1.02-5.98.01-.04.1-.06.25-.06.04.09.04.44 0 1.07-.28 1.44-.42 2.55-.42 3.32 0 1.14.22 2.07.66 2.8s1.11 1.09 2.01 1.09c.8 0 1.58-.26 2.35-.78s1.36-1.15 1.75-1.88c.31-.57.41-1.12.3-1.66-.07-.2-.25-.33-.52-.38-.43-.09-.66-.15-.69-.16-.37-.1-.68-.32-.92-.67-.14-.73-.12-1.58.04-2.54.14-.63.28-1.25.42-1.88.17-.75.24-1.41.21-1.98-.06-1.21-.06-2.1 0-2.67.21-.45.48-1.13.83-2.04.13-.09.17-.13.13-.13v-.04c.14 0 .2.04.2.13z"/><path d="m33.79 11.09c-.05.26-.1.65-.16 1.16-.06.65-.09 1.56-.11 2.71 0 1.32-.01 2.25-.04 2.77-.06 1.12-.36 2.3-.92 3.52-.11.23-.2.34-.29.34-.04 0-.09-.01-.13-.04-.1-.06-.14-.19-.11-.39.11-.39.21-1.37.28-2.94-.1-1.27-.14-2.68-.11-4.26.23-.79.64-1.77 1.23-2.93.14-.09.26-.06.35.06z"/><path d="m38.44 18.57c-.1.71-.48 1.66-1.13 2.84-.18.32-.48.54-.92.65-.36.09-.74.19-1.12.29-.28.09-.7.21-1.26.37-.14 0-.22-.04-.25-.13 0-.11.1-.22.29-.33.58-.35 1.17-.69 1.75-1.02.64-.41 1.18-.83 1.63-1.25.14-.18.18-.42.13-.73-.09-.21-.19-.36-.3-.44-.15.03-.29.04-.42.04-.53 0-.92-.18-1.18-.54-.1-.17-.15-.35-.15-.54 0-.21.06-.46.19-.77.12-.23.23-.47.33-.73s.2-.53.29-.82c.16-.32.37-.53.63-.63.48-.09.87.1 1.16.59.32.54.48 1.18.48 1.92 0 .39-.05.8-.16 1.23z"/><path d="m56.03 22.22-3.77.33c-1.96.17-3.53.26-4.69.26s-2.26-.07-3.21-.21c-1.19-.18-1.87-.62-2.03-1.33.03-.35.18-.74.46-1.16.23-.35.46-.7.69-1.07.43-.53 1-1 1.73-1.42.65-.33 1.31-.66 1.96-.98.4-.21.6-.6.6-1.18 0 .07-.04-.33-.12-1.21l-.04-.5c.06-.22.17-.48.33-.77.23-.46.37-.71.39-.76.11-.12.19-.16.24-.13 0 .56 0 1.38.02 2.46-.11 1.15-.39 1.98-.84 2.48-.3.34-.8.65-1.49.92-.82.34-1.36.59-1.61.75-.46.31-.65.6-.58.9.08.15.36.31.83.48l1.03.2 3.51.21h3.46l5.09-.06 1.98-.15c.12-.02.18.03.18.15-.16.19-.43.38-.79.59-.93.68-2.04 1.08-3.34 1.2zm-8-15.01.11.02c.37.32.92.77 1.66 1.35-.28.53-.79 1.12-1.52 1.77-.25-.03-.5-.15-.76-.36s-.49-.42-.71-.62-.31-.36-.28-.47c.49-.61.99-1.17 1.5-1.69z"/><path d="m67.8 6.05c-.48 1.34-1.28 2.41-2.4 3.19-.57.4-1.15.6-1.75.6-.29 0-.57-.05-.83-.16-.04-.01-.13-.07-.25-.16s-.22-.14-.29-.14c-.04 0-.09.01-.15.04-.38.2-.8.6-1.27 1.22-.06.05-.16.07-.31.07-.04-.05-.04-.19 0-.42.75-1.44 1.58-2.48 2.5-3.1.1-.09.21-.14.33-.14.11 0 .26.06.45.16.19.11.32.17.39.19.28.11.56.16.85.16.58 0 1.08-.18 1.49-.53.21-.27.56-.64 1.05-1.11.13-.07.19-.03.19.13zm-3.38 5.04c-.04.26-.09.65-.15 1.16-.06.65-.1 1.56-.12 2.71 0 1.32-.01 2.25-.04 2.77-.06 1.12-.36 2.3-.92 3.52-.1.23-.19.34-.28.34-.05 0-.1-.01-.14-.04-.1-.06-.14-.19-.11-.39.11-.39.21-1.37.29-2.94-.11-1.27-.15-2.68-.12-4.26.24-.79.64-1.77 1.23-2.93.15-.09.27-.06.35.06z"/><path d="m74.23 16.06v.23l-.36.18c-.33.17-.67.42-1.03.75-.4.37-.67.72-.79 1.06-.07.2-.04.33.1.39.53-.02.89.15 1.08.51.19.37.16.74-.07 1.1-.28.43-.7.56-1.27.42-.63-.16-.94-.68-.94-1.56 0-.75.32-1.46.95-2.14.47-.49 1.06-.85 1.76-1.09.11-.04.21-.05.31-.04.16.01.26.08.28.19z"/><path d="m82.28 16.99.06-.04c1.6-2.97 3.59-4.79 5.96-5.44.1-.01.22.01.35.09-.16.36-.39.87-.68 1.54-.1.09-.23.16-.38.21-.26.08-.41.12-.44.14-1.87.84-3.23 2.01-4.08 3.51h.02c.39-.18.76-.28 1.11-.28.22 0 .42.04.59.11.47.23.7.64.7 1.21 0 .48-.21.98-.63 1.52-.37.45-.74.89-1.1 1.33-.58.65-1.37 1.08-2.36 1.27-.55.1-1.49.15-2.82.15-.57.29-1.25.44-2.04.44-.74 0-1.44-.12-2.11-.37-.09-.01-.12-.08-.1-.19.18-.11.43-.17.75-.2.44-.06.7-.1.79-.13.31 0 .63-.26.98-.79.31-.46.62-1.05.94-1.77.28-.6.55-1.2.83-1.81.5-1.02 1.17-1.58 2.03-1.7.5-.06.95.1 1.35.5.15.18.24.42.27.71zm-1.12.81c-.17-.23-.35-.38-.54-.44-.1-.03-.19-.04-.28-.04-.28 0-.55.16-.83.48-.35.39-.72.99-1.12 1.79-.43.87-.78 1.49-1.05 1.83 1.85-.55 3.09-1.33 3.71-2.34.25-.41.29-.84.11-1.29zm2.78.5c-.12-.11-.28-.17-.49-.17s-.43.06-.69.17c-.39.32-.89.86-1.5 1.62s-1.11 1.3-1.49 1.62c1.11-.18 1.96-.41 2.56-.67 1.07-.47 1.7-1.12 1.9-1.94 0-.26-.09-.47-.28-.62zm1.05-10.79h.13c.57.5 1.14.91 1.71 1.23.23-.29.58-.7 1.04-1.23h.09c.46.38.98.76 1.58 1.14.03.03.03.13 0 .31-.26.35-.69.84-1.29 1.48-.25-.01-.52-.13-.81-.35-.23-.18-.47-.37-.71-.56l-.2-.29c-.22.26-.56.65-1.02 1.16-.06.04-.12.06-.19.06-.05 0-.24-.09-.58-.27-.26-.17-.61-.48-1.05-.92l.02-.17 1.29-1.6z"/><path d="m90.25 18.22v-4.87c0-.64.04-1.16.12-1.57.17-.41.4-1.02.67-1.86.01-.09.07-.13.18-.11.09.03.14.08.15.15-.16 1.44-.25 2.91-.25 4.39s.08 2.86.25 4.23c.18.85.53 1.34 1.02 1.48.14.03.27.04.42.04.87 0 1.61-.43 2.21-1.29.16-.21.31-.43.46-.65.21-.25.42-.39.63-.44.28.03.67.02 1.18-.02.14-.09.37-.37.69-.85.25-.38.54-.56.88-.54.06 0 .18.01.34.04s.28.04.37.04c.22 0 .38-.07.48-.21.07-.09.16-.26.26-.51.08-.2.17-.33.29-.41.15 0 .24.06.27.17-.25.96-.59 1.66-1.01 2.1-.11.07-.26.12-.43.15-.14.01-.31.01-.53 0-.29-.01-.46-.02-.5-.02l-.17.06c-.21.32-.4.65-.59.98-.28.36-.61.53-1.01.5-.1.01-.24 0-.42-.05s-.3-.07-.36-.07c-.13 0-.24.04-.33.13-.24.51-.48 1.02-.73 1.51-.29.61-.6 1.09-.94 1.44-.54.45-1.04.67-1.48.67-.21 0-.39-.04-.56-.11-.48-.22-.84-.61-1.08-1.18-.13-.32-.26-.85-.38-1.59l-.07-1.75z"/><path d="m114.49 8.08 3.23-1.44c.43-.22.86-.44 1.29-.66.51-.28.92-.56 1.23-.85.11 0 .17.04.17.12.04.11-.05.3-.27.57-.68.82-1.54 1.5-2.57 2.03-1.11.47-2.75 1.22-4.92 2.25-.54.29-.88.66-1.02 1.12-.06.32-.11.97-.14 1.94-.04.83-.12 1.47-.23 1.92-.34 1.27-1.01 2.13-2.04 2.6-.49.22-.98.43-1.46.63-.55.29-.95.67-1.19 1.14-.04.11.09.26.36.44.54.2 1.28.32 2.21.36 1.47.09 2.24.14 2.29.14h4.27l3.97-.14 2.73-.17c.11 0 .17.04.18.11l-.06.14c-1.21 1-2.71 1.6-4.5 1.79l-3.46.36-3.98.25c-.6.04-1.11.06-1.55.06-1.44 0-2.61-.21-3.5-.63-.46-.22-.69-.52-.67-.9.01-.32.13-.67.35-1.06.2-.33.41-.66.63-.98.35-.55.88-1.07 1.59-1.55.33-.22.98-.59 1.95-1.12.8-.42 1.21-.99 1.24-1.72 0-.6.01-1.19.03-1.79.03-.68.13-1.23.3-1.66.44-1.07.99-1.82 1.64-2.27.48-.33 1.11-.68 1.9-1.02z"/><path d="m136.85 6.33c.24.58.35 1.21.35 1.88 0 1.21-.34 2.31-1.03 3.32-1.14 1.71-2.39 2.5-3.73 2.39-.63-.13-1.08-.44-1.35-.92-.24.14-.56.43-.98.86-1.46 1.54-2.19 3.24-2.19 5.1 0 .67.11 1.31.32 1.93s.63 1.09 1.26 1.41c.54.29 1.15.44 1.83.44 1.22 0 2.38-.42 3.47-1.25.99-.75 1.78-1.72 2.37-2.9.11-.32.3-.79.57-1.4.1-.11.19-.14.28-.09.05.03.07.08.07.15-.01.1-.01.16 0 .17-.47 1.79-1.25 3.39-2.35 4.79-1.25 1.59-2.7 2.59-4.34 3.01-.33.09-.68.14-1.02.14-1.12 0-2.01-.42-2.67-1.27-.73-.93-1.06-2.18-.98-3.75.09-1.94.88-4.11 2.38-6.5.07-.1.59-.73 1.55-1.9-.07-.58-.56-.97-1.48-1.15-.07-.01-.17-.01-.31 0-.16.03-.25.04-.28.04-.15 0-.26-.06-.33-.18-.01-.16.06-.3.21-.43s.3-.25.44-.37c.97-.54 1.85-.81 2.64-.81.57 0 1.07.15 1.49.44.24.17.36.44.36.81-.09.32-.28.65-.59 1-.29.29-.58.59-.87.9.26.28.64.42 1.14.42.34 0 .67-.06 1-.18.8-.28 1.46-.95 1.98-2.01.15-.43.16-.73.04-.92-.07-.1-.21-.14-.42-.11-.28.03-.43.04-.46.04-.49-.03-.83-.2-1.02-.5-.09-.16-.13-.34-.13-.53 0-.23.12-.61.37-1.15.11-.38.23-.76.34-1.14.16-.43.44-.68.83-.74.57 0 .98.32 1.23.96zm-3.06-3.89 1.42-1.61.18.02c.26.26.82.74 1.67 1.42-.14.26-.37.55-.67.85-.4.42-.65.67-.73.75s-.16.12-.23.12c-.09 0-.27-.09-.54-.27-.22-.16-.44-.33-.67-.52s-.39-.39-.49-.59l.06-.18z"/><path d="m140.4 10.71.26-.85c.03-.09.08-.14.16-.14.07.01.13.06.17.14-.19 2.05-.22 4.47-.09 7.25.07.52.15 1.04.24 1.57.15.6.44 1.01.87 1.23.21.09.41.13.62.13.58 0 1.16-.28 1.74-.83.06-.06.29-.38.68-.96.26-.39.56-.61.9-.67.1-.01.24-.01.42 0 .22.04.36.06.42.06.17 0 .31-.06.41-.18s.43-.54.99-1.26c.38-.51.75-.88 1.11-1.1.12-.35.34-.84.66-1.48.01 0 .04-.04.09-.11.04-.07.09-.11.15-.11.03 0 .06 0 .09.02.08.06.22.27.42.62.3.39.74.85 1.31 1.38.12.1.12.25 0 .44-.45.77-.86 1.28-1.23 1.53-.21.04-.5 0-.86-.16-.36-.15-.65-.2-.86-.18-.47.01-.93.36-1.38 1.04s-.9 1.02-1.35 1.02c-.11 0-.21-.01-.32-.04s-.22-.06-.34-.09c-.14-.04-.27-.04-.37.02l-.19.28c-.43 1.07-.77 1.78-1 2.14-.51.78-1.14 1.21-1.88 1.31-.61.09-1.13-.22-1.56-.92-.4-.89-.61-2.12-.63-3.69v-1.86c0-.29 0-.56-.02-.81.01-.21.02-.43.02-.68 0-.21-.01-.54-.03-.98s-.03-.77-.03-.99c0-.86.15-1.56.44-2.09zm2.11 3.34 1.12-1.35h.17c.35.32.9.75 1.66 1.29.04.06.03.14-.04.23l-1.25 1.54c-.13.1-.25.13-.37.09-.73-.36-1.26-.8-1.61-1.31.09-.1.19-.26.32-.48z"/><path d="m163.57 8.92-.07-.12c-.65.03-1.13-.16-1.44-.57-.14-.23-.18-.52-.11-.85.25-.41.58-1.04.98-1.9.25-.42.51-.63.79-.63.33-.08.66.13.98.63.21.48.31 1 .31 1.55 0 1.15-.37 2.21-1.1 3.19l-.71.75c.32.16.76.47 1.33.92.2.44.18.85-.04 1.23-.61.97-1.4 1.51-2.35 1.59-.96.09-1.83.39-2.61.89-.86.55-1.45 1.27-1.77 2.14-.16.64-.22 1.89-.18 3.75l.12 5.09c.01.46-.1 1.11-.35 1.97-.03.09-.11.13-.25.13-.04-.07-.06-.19-.06-.35.01-.18.01-.29 0-.32 0-.37 0-.94-.02-1.71l-.21-3.27c-.08-1.04-.12-1.85-.12-2.43 0-1.86.32-3.4.95-4.62.64-1.22 1.77-2.27 3.4-3.16.61-1.12 1.4-2.16 2.38-3.1.21-.36.26-.63.16-.8zm1.26-8.86h.2c.52.5 1.06.93 1.63 1.29.06.07.05.17-.04.31-.21.29-.44.58-.67.85-.26.35-.53.59-.81.74-.45-.16-1.01-.56-1.66-1.23-.09-.09-.12-.13-.11-.13-.25.31-.64.74-1.18 1.29-.36-.06-.91-.44-1.65-1.16-.12-.18-.16-.3-.11-.34.32-.41.79-.97 1.42-1.69l.17.02c.53.5 1.07.93 1.64 1.29h.13l1.05-1.25z"/><path d="m164.29 22.36c-.26.06-.69.14-1.29.25-.13 0-.21-.05-.23-.14-.01-.13.09-.25.3-.36.55-.36 1.11-.71 1.66-1.06.65-.42 1.18-.81 1.59-1.17.43-.48.83-1.19 1.2-2.12.28-.79.55-1.57.83-2.36.04-.12.14-.18.29-.18.13 0 .19.06.19.18.03.28-.09.91-.35 1.9-.45 1.72-.99 3.11-1.61 4.17-.24.39-.62.63-1.16.73-.48.06-.95.11-1.42.17z"/><path d="m194.47 6.07v3.56c0 .65-.11 1.39-.33 2.21-.23.7-.46 1.4-.68 2.1-.07.56-.07.92 0 1.07.14.11.48.26 1.04.44.45.13.72.36.82.69.29.63.36 1.54.2 2.73-.38 2.87-1.61 4.91-3.69 6.1-.48.28-1.03.42-1.64.42s-1.18-.16-1.61-.48c-.8-.6-1.36-1.59-1.66-2.98-.04-.45-.06-.91-.06-1.4 0-1.82.34-3.81 1.02-5.98.01-.04.1-.06.25-.06.04.09.04.44 0 1.07-.28 1.44-.42 2.55-.42 3.32 0 1.14.22 2.07.66 2.8s1.11 1.09 2.01 1.09c.8 0 1.58-.26 2.35-.78s1.36-1.15 1.75-1.88c.31-.57.41-1.12.3-1.66-.07-.2-.25-.33-.52-.38-.43-.09-.66-.15-.69-.16-.37-.1-.68-.32-.92-.67-.14-.73-.12-1.58.04-2.54.14-.63.28-1.25.42-1.88.17-.75.24-1.41.21-1.98-.06-1.21-.06-2.1 0-2.67.21-.45.48-1.13.83-2.04.13-.09.17-.13.13-.13v-.04c.14 0 .2.04.2.13z"/><path d="m197.54 15.55h.04c.4-.82 1.01-1.66 1.83-2.53.25-.26 1.04-1.01 2.36-2.23 1.33-1.22 2.29-2.21 2.91-2.98.09-.22.16-.33.23-.33.04 0 .09.04.14.12.01.11-.06.4-.22.85-.25.73-.87 1.6-1.88 2.61-.47.48-1.24 1.18-2.3 2.09s-1.85 1.62-2.35 2.13c-.09.23-.12.35-.11.36.32-.1.65-.15 1-.15.81 0 1.42.25 1.81.75.29.38.44.84.44 1.38 0 .39-.13 1.04-.39 1.94-.39 1-.75 1.75-1.07 2.23.09.04.21.06.36.04.19-.01.32-.01.39 0 .78-.1 1.45-.35 2.04-.75.67-.43 1.13-.98 1.38-1.65.03-.33.02-.8-.02-1.4-.05-.72-.07-1.19-.07-1.42.16-.29.42-.72.77-1.29.06-.08.18-.07.37.02-.06.97-.11 1.95-.17 2.92-.11 1.08-.44 1.96-.99 2.64-.83 1.03-1.89 1.63-3.21 1.79-.2.03-.47.02-.82-.02-.4-.06-.66-.09-.79-.09-.21 0-.39.03-.54.09-.57.03-1.01-.12-1.33-.46-.28-.39-.45-.9-.52-1.54-.06-.52-.12-1.04-.16-1.57-.01-1.59-.04-3.92-.06-7.01 0-.32.11-.71.33-1.18.28-.57.44-.96.48-1.16.01-.04.04-.08.09-.11.07-.03.15 0 .25.09-.08.9-.15 2.48-.22 4.75 0 .38 0 .73.02 1.05zm3.06 3.17c-.21-.39-.59-.68-1.14-.87-.13-.03-.27-.04-.42-.04-.49 0-.96.19-1.42.57-.13.16-.16.31-.11.44.06.69.47 1.16 1.23 1.42.5.11.94 0 1.29-.34.46-.38.65-.77.56-1.16zm3.12-6.05v-.09c.5-.51 1.06-1.05 1.68-1.6l.14.04c.58.63 1.09 1.13 1.53 1.51l-.02.17c-.33.36-.86.85-1.57 1.46-.14.03-.26 0-.37-.07-.11-.08-.22-.16-.32-.23-.21-.17-.42-.36-.63-.56-.22-.2-.36-.41-.43-.63z"/><path d="m189.79 4.23c-.33.43-.8.89-1.39 1.38-.42.21-1.08.53-1.98.96-.49.23-.98.45-1.48.66-.56.26-1 .56-1.31.92-.11.13-.18.3-.22.5l-.1.54v2.71c-.06.41-.28.98-.67 1.69-.09.24-.29.42-.6.54-.16.03-.41 0-.74-.09s-.6-.11-.82-.05c-.64.16-1.05.49-1.21.97-.04.23-.03.38.04.46.12.16.3.26.53.3s.44.08.64.12c.39.05.68.35.89.91.11.51.16 1.03.16 1.56 0 2.09-.71 3.99-2.14 5.68-.95 1.14-2.03 1.71-3.22 1.71-.37 0-.73-.06-1.07-.18-.94-.45-1.58-1.23-1.92-2.34-.24-.79-.33-1.85-.3-3.18.03-.77.3-2.32.83-4.66.01-.11.1-.25.26-.4.12.01.19.07.19.16.03.2 0 .47-.08.79-.09.39-.13.64-.15.77-.17 1.02-.26 1.88-.26 2.58 0 1.36.31 2.42.93 3.17.43.51 1.01.76 1.75.76 1.01 0 1.96-.38 2.85-1.15s1.45-1.65 1.69-2.64c.08-.35.03-.6-.15-.77-.04-.03-.44-.14-1.2-.35-.5-.15-.82-.39-.96-.73-.14-.39-.22-.79-.22-1.21 0-.78.26-1.65.77-2.6.3-.56.77-.9 1.43-1.01.12-.03.35.02.69.15.3.11.55.1.77-.02.16-.09.32-.28.5-.59.01-.13.01-.72 0-1.75-.01-.71.06-1.25.22-1.61.23-.56.42-.96.57-1.19.24-.41.53-.74.87-.98 1.23-.64 2.15-1.1 2.76-1.37 1.25-.59 2.2-1.16 2.85-1.69.05.01.11.03.18.06.03.11-.03.29-.18.54zm-9.5 5.91c-1.08.82-1.87 1.64-2.37 2.46-.03.08-.1.09-.23.02-.04-.18.03-.47.21-.87.14-.22.38-.54.7-.96-.22-.16-.37-.27-.44-.32-.16-.14-.25-.29-.28-.44-.05-.26.04-.52.26-.79.2-.23.4-.46.59-.68.3-.41.65-.61 1.06-.61.08 0 .17 0 .28.03.11.02.2.1.29.24.05.2.04.34-.03.42-.07.04-.23 0-.5-.11-.3-.12-.52-.06-.66.19-.07.08-.15.23-.25.44.07.24.31.41.73.5.17.04.41-.06.71-.29.31-.23.54-.35.69-.35.04.33-.22.71-.77 1.12zm7.71-6.89c-.26.23-.91.58-1.96 1.06-.54.26-1.08.51-1.63.77-.63.3-1.15.6-1.56.91-.13 0-.2-.03-.22-.1.07-.2.35-.59.85-1.17.56-.37 1.42-.82 2.58-1.33 1.24-.54 2.11-.96 2.62-1.27.06.01.11.06.15.15-.1.17-.37.5-.83.98z"/></g></svg>